<svg width="64" height="55" viewBox="0 0 64 55" fill="none" xmlns="http://www.w3.org/2000/svg">
<g filter="url(#filter0_b_1_8)">
<path d="M27.8022 39.1849H26.1249L23.4311 35.4238C22.7704 36.0208 22.0673 36.5837 21.3218 37.1125C20.5933 37.6242 19.8224 38.0762 19.0092 38.4685C18.196 38.8437 17.3573 39.1422 16.4933 39.364C15.6462 39.5857 14.7821 39.6966 13.9011 39.6966C11.9866 39.6966 10.1823 39.3384 8.48806 38.622C6.81078 37.8885 5.33681 36.8822 4.06614 35.6029C2.81241 34.3066 1.82129 32.78 1.09277 31.0232C0.364258 29.2492 0 27.3218 0 25.2409C0 23.177 0.364258 21.2581 1.09277 19.4842C1.82129 17.7103 2.81241 16.1752 4.06614 14.8788C5.33681 13.5825 6.81078 12.5676 8.48806 11.8342C10.1823 11.1007 11.9866 10.734 13.9011 10.734C14.511 10.734 15.1379 10.7852 15.7817 10.8875C16.4424 10.9899 17.0778 11.1604 17.6877 11.3992C18.3146 11.621 18.8991 11.9195 19.4412 12.2947C19.9834 12.67 20.4408 13.1305 20.8135 13.6763V0.883667H27.8022V39.1849ZM20.8135 25.2409C20.8135 24.2857 20.6272 23.3646 20.2545 22.4777C19.8987 21.5737 19.4073 20.7805 18.7805 20.0982C18.1536 19.3989 17.4166 18.8446 16.5695 18.4352C15.7393 18.0088 14.8499 17.7956 13.9011 17.7956C12.9523 17.7956 12.0544 17.9661 11.2073 18.3073C10.3771 18.6484 9.64861 19.143 9.02174 19.7912C8.41182 20.4223 7.92897 21.1984 7.57318 22.1195C7.2174 23.0405 7.0395 24.081 7.0395 25.2409C7.0395 26.2472 7.2174 27.2024 7.57318 28.1064C7.92897 29.0104 8.41182 29.8036 9.02174 30.4859C9.64861 31.1681 10.3771 31.7054 11.2073 32.0977C12.0544 32.4901 12.9523 32.6862 13.9011 32.6862C14.8499 32.6862 15.7393 32.4815 16.5695 32.0722C17.4166 31.6457 18.1536 31.0914 18.7805 30.4091C19.4073 29.7098 19.8987 28.9166 20.2545 28.0297C20.6272 27.1257 20.8135 26.1961 20.8135 25.2409Z" fill="#D9D9D9"/>
<path d="M64 25.2409C64 27.39 63.6357 29.3516 62.9072 31.1255C62.1787 32.8994 61.1876 34.426 59.9339 35.7053C58.6801 36.9675 57.2062 37.9482 55.5119 38.6476C53.8347 39.3469 52.0303 39.6966 50.0989 39.6966C48.1844 39.6966 46.3801 39.3384 44.6858 38.622C43.0086 37.9056 41.5346 36.9078 40.2639 35.6285C39.0102 34.3493 38.0191 32.8312 37.2906 31.0743C36.562 29.3004 36.1978 27.3559 36.1978 25.2409V0.883667H43.161V13.6763C43.5338 13.1987 43.9827 12.7723 44.5079 12.3971C45.0501 12.0218 45.6261 11.7148 46.2361 11.476C46.8629 11.2372 47.5067 11.0581 48.1675 10.9387C48.8282 10.8022 49.472 10.734 50.0989 10.734C52.0303 10.734 53.8347 11.1007 55.5119 11.8342C57.2062 12.5506 58.6801 13.5569 59.9339 14.8532C61.1876 16.1496 62.1787 17.6847 62.9072 19.4586C63.6357 21.2155 64 23.1429 64 25.2409ZM57.0113 25.2409C57.0113 24.1834 56.825 23.2026 56.4522 22.2986C56.0964 21.3775 55.6051 20.5844 54.9783 19.9191C54.3514 19.2539 53.6144 18.7337 52.7673 18.3584C51.9371 17.9832 51.0477 17.7956 50.0989 17.7956C49.1501 17.7956 48.2522 18.0088 47.4051 18.4352C46.5749 18.8446 45.8464 19.3989 45.2195 20.0982C44.5927 20.7805 44.1013 21.5737 43.7455 22.4777C43.3898 23.3646 43.2119 24.2857 43.2119 25.2409C43.2119 26.2984 43.3898 27.2792 43.7455 28.1832C44.1013 29.0872 44.5927 29.8718 45.2195 30.537C45.8464 31.2023 46.5749 31.731 47.4051 32.1233C48.2522 32.4986 49.1501 32.6862 50.0989 32.6862C51.0477 32.6862 51.9371 32.4986 52.7673 32.1233C53.6144 31.731 54.3514 31.2023 54.9783 30.537C55.6051 29.8718 56.0964 29.0872 56.4522 28.1832C56.825 27.2792 57.0113 26.2984 57.0113 25.2409Z" fill="#D9D9D9"/>
</g>
<path fill-rule="evenodd" clip-rule="evenodd" d="M41.2793 49.8752C41.8149 51.0094 41.3296 52.3629 40.1954 52.8984C38.6423 53.6318 36.0721 54.4554 33.1577 54.6972C30.2395 54.9392 26.7839 54.6117 23.6461 52.8158C22.5576 52.1928 22.1802 50.8053 22.8032 49.7168C23.4262 48.6283 24.8137 48.2509 25.9022 48.8739C27.9907 50.0692 30.4412 50.3649 32.7823 50.1708C35.1272 49.9763 37.1697 49.3043 38.2561 48.7913C39.3903 48.2558 40.7438 48.7411 41.2793 49.8752Z" fill="#D9D9D9"/>
<defs>
<filter id="filter0_b_1_8" x="-4" y="-3.11633" width="72" height="46.8129" filterUnits="userSpaceOnUse" color-interpolation-filters="sRGB">
<feFlood flood-opacity="0" result="BackgroundImageFix"/>
<feGaussianBlur in="BackgroundImageFix" stdDeviation="2"/>
<feComposite in2="SourceAlpha" operator="in" result="effect1_backgroundBlur_1_8"/>
<feBlend mode="normal" in="SourceGraphic" in2="effect1_backgroundBlur_1_8" result="shape"/>
</filter>
</defs>
</svg>
