<svg width="64" height="55" viewBox="0 0 64 55" fill="none" xmlns="http://www.w3.org/2000/svg">
<g filter="url(#filter0_b_1_22)">
<path d="M27.8022 39.0685H26.1249L23.4311 35.3075C22.7704 35.9045 22.0673 36.4674 21.3218 36.9961C20.5933 37.5078 19.8224 37.9598 19.0092 38.3522C18.196 38.7274 17.3573 39.0259 16.4933 39.2476C15.6462 39.4694 14.7821 39.5802 13.9011 39.5802C11.9866 39.5802 10.1823 39.2221 8.48806 38.5057C6.81078 37.7722 5.33681 36.7659 4.06614 35.4866C2.81241 34.1903 1.82129 32.6637 1.09277 30.9068C0.364258 29.1329 0 27.2055 0 25.1245C0 23.0607 0.364258 21.1418 1.09277 19.3679C1.82129 17.5939 2.81241 16.0588 4.06614 14.7625C5.33681 13.4662 6.81078 12.4513 8.48806 11.7178C10.1823 10.9844 11.9866 10.6177 13.9011 10.6177C14.511 10.6177 15.1379 10.6688 15.7817 10.7712C16.4424 10.8735 17.0778 11.0441 17.6877 11.2829C18.3146 11.5046 18.8991 11.8031 19.4412 12.1784C19.9834 12.5536 20.4408 13.0142 20.8135 13.56V0.767334H27.8022V39.0685ZM20.8135 25.1245C20.8135 24.1694 20.6272 23.2483 20.2545 22.3613C19.8987 21.4573 19.4073 20.6642 18.7805 19.9819C18.1536 19.2826 17.4166 18.7282 16.5695 18.3189C15.7393 17.8924 14.8499 17.6792 13.9011 17.6792C12.9523 17.6792 12.0544 17.8498 11.2073 18.1909C10.3771 18.5321 9.64861 19.0267 9.02174 19.6749C8.41182 20.306 7.92897 21.0821 7.57318 22.0031C7.2174 22.9242 7.0395 23.9647 7.0395 25.1245C7.0395 26.1309 7.2174 27.0861 7.57318 27.9901C7.92897 28.8941 8.41182 29.6873 9.02174 30.3695C9.64861 31.0518 10.3771 31.5891 11.2073 31.9814C12.0544 32.3737 12.9523 32.5699 13.9011 32.5699C14.8499 32.5699 15.7393 32.3652 16.5695 31.9558C17.4166 31.5294 18.1536 30.9751 18.7805 30.2928C19.4073 29.5934 19.8987 28.8003 20.2545 27.9133C20.6272 27.0093 20.8135 26.0797 20.8135 25.1245Z" fill="#191523"/>
<path d="M64 25.1245C64 27.2737 63.6357 29.2353 62.9072 31.0092C62.1787 32.7831 61.1876 34.3097 59.9339 35.5889C58.6801 36.8511 57.2062 37.8319 55.5119 38.5312C53.8347 39.2306 52.0303 39.5802 50.0989 39.5802C48.1844 39.5802 46.3801 39.2221 44.6858 38.5057C43.0086 37.7893 41.5346 36.7914 40.2639 35.5122C39.0102 34.2329 38.0191 32.7149 37.2906 30.958C36.562 29.1841 36.1978 27.2396 36.1978 25.1245V0.767334H43.161V13.56C43.5338 13.0824 43.9827 12.656 44.5079 12.2807C45.0501 11.9055 45.6261 11.5984 46.2361 11.3597C46.8629 11.1209 47.5067 10.9418 48.1675 10.8224C48.8282 10.6859 49.472 10.6177 50.0989 10.6177C52.0303 10.6177 53.8347 10.9844 55.5119 11.7178C57.2062 12.4342 58.6801 13.4406 59.9339 14.7369C61.1876 16.0332 62.1787 17.5684 62.9072 19.3423C63.6357 21.0991 64 23.0266 64 25.1245ZM57.0113 25.1245C57.0113 24.067 56.825 23.0863 56.4522 22.1822C56.0964 21.2612 55.6051 20.468 54.9783 19.8028C54.3514 19.1376 53.6144 18.6174 52.7673 18.2421C51.9371 17.8668 51.0477 17.6792 50.0989 17.6792C49.1501 17.6792 48.2522 17.8924 47.4051 18.3189C46.5749 18.7282 45.8464 19.2826 45.2195 19.9819C44.5927 20.6642 44.1013 21.4573 43.7455 22.3613C43.3898 23.2483 43.2119 24.1694 43.2119 25.1245C43.2119 26.1821 43.3898 27.1628 43.7455 28.0669C44.1013 28.9709 44.5927 29.7555 45.2195 30.4207C45.8464 31.0859 46.5749 31.6147 47.4051 32.007C48.2522 32.3822 49.1501 32.5699 50.0989 32.5699C51.0477 32.5699 51.9371 32.3822 52.7673 32.007C53.6144 31.6147 54.3514 31.0859 54.9783 30.4207C55.6051 29.7555 56.0964 28.9709 56.4522 28.0669C56.825 27.1628 57.0113 26.1821 57.0113 25.1245Z" fill="#191523"/>
</g>
<path fill-rule="evenodd" clip-rule="evenodd" d="M41.2793 49.7589C41.8149 50.893 41.3296 52.2466 40.1954 52.7821C38.6423 53.5154 36.0721 54.3391 33.1577 54.5808C30.2395 54.8229 26.7839 54.4954 23.6461 52.6995C22.5576 52.0765 22.1802 50.689 22.8032 49.6005C23.4262 48.5119 24.8137 48.1345 25.9022 48.7576C27.9907 49.9529 30.4412 50.2486 32.7823 50.0544C35.1272 49.8599 37.1697 49.188 38.2561 48.675C39.3903 48.1395 40.7438 48.6247 41.2793 49.7589Z" fill="#191523"/>
<defs>
<filter id="filter0_b_1_22" x="-4" y="-3.23267" width="72" height="46.8129" filterUnits="userSpaceOnUse" color-interpolation-filters="sRGB">
<feFlood flood-opacity="0" result="BackgroundImageFix"/>
<feGaussianBlur in="BackgroundImageFix" stdDeviation="2"/>
<feComposite in2="SourceAlpha" operator="in" result="effect1_backgroundBlur_1_22"/>
<feBlend mode="normal" in="SourceGraphic" in2="effect1_backgroundBlur_1_22" result="shape"/>
</filter>
</defs>
</svg>
