<svg width="64" height="54" viewBox="0 0 64 54" fill="none" xmlns="http://www.w3.org/2000/svg">
<g filter="url(#filter0_b_1_3)">
<path d="M27.8022 38.3012H26.1249L23.4311 34.5402C22.7704 35.1372 22.0673 35.7 21.3218 36.2288C20.5933 36.7405 19.8224 37.1925 19.0092 37.5848C18.196 37.9601 17.3573 38.2586 16.4933 38.4803C15.6462 38.702 14.7821 38.8129 13.9011 38.8129C11.9866 38.8129 10.1823 38.4547 8.48806 37.7383C6.81078 37.0049 5.33681 35.9985 4.06614 34.7193C2.81241 33.4229 1.82129 31.8964 1.09277 30.1395C0.364258 28.3656 0 26.4382 0 24.3572C0 22.2933 0.364258 20.3744 1.09277 18.6005C1.82129 16.8266 2.81241 15.2915 4.06614 13.9952C5.33681 12.6988 6.81078 11.684 8.48806 10.9505C10.1823 10.2171 11.9866 9.85034 13.9011 9.85034C14.511 9.85034 15.1379 9.90151 15.7817 10.0039C16.4424 10.1062 17.0778 10.2768 17.6877 10.5156C18.3146 10.7373 18.8991 11.0358 19.4412 11.411C19.9834 11.7863 20.4408 12.2468 20.8135 12.7927V0L27.8022 0V38.3012ZM20.8135 24.3572C20.8135 23.402 20.6272 22.481 20.2545 21.594C19.8987 20.69 19.4073 19.8968 18.7805 19.2146C18.1536 18.5152 17.4166 17.9609 16.5695 17.5515C15.7393 17.1251 14.8499 16.9119 13.9011 16.9119C12.9523 16.9119 12.0544 17.0825 11.2073 17.4236C10.3771 17.7647 9.64861 18.2594 9.02174 18.9075C8.41182 19.5386 7.92897 20.3147 7.57318 21.2358C7.2174 22.1569 7.0395 23.1973 7.0395 24.3572C7.0395 25.3636 7.2174 26.3188 7.57318 27.2228C7.92897 28.1268 8.41182 28.9199 9.02174 29.6022C9.64861 30.2845 10.3771 30.8218 11.2073 31.2141C12.0544 31.6064 12.9523 31.8025 13.9011 31.8025C14.8499 31.8025 15.7393 31.5979 16.5695 31.1885C17.4166 30.7621 18.1536 30.2077 18.7805 29.5254C19.4073 28.8261 19.8987 28.033 20.2545 27.146C20.6272 26.242 20.8135 25.3124 20.8135 24.3572Z" fill="#00113F"/>
<path d="M64 24.3572C64 26.5064 63.6357 28.4679 62.9072 30.2418C62.1787 32.0157 61.1876 33.5423 59.9339 34.8216C58.6801 36.0838 57.2062 37.0646 55.5119 37.7639C53.8347 38.4632 52.0303 38.8129 50.0989 38.8129C48.1844 38.8129 46.3801 38.4547 44.6858 37.7383C43.0086 37.0219 41.5346 36.0241 40.2639 34.7449C39.0102 33.4656 38.0191 31.9475 37.2906 30.1907C36.562 28.4167 36.1978 26.4723 36.1978 24.3572V0L43.161 0V12.7927C43.5338 12.3151 43.9827 11.8886 44.5079 11.5134C45.0501 11.1381 45.6261 10.8311 46.2361 10.5923C46.8629 10.3535 47.5067 10.1744 48.1675 10.055C48.8282 9.91857 49.472 9.85034 50.0989 9.85034C52.0303 9.85034 53.8347 10.2171 55.5119 10.9505C57.2062 11.6669 58.6801 12.6733 59.9339 13.9696C61.1876 15.2659 62.1787 16.801 62.9072 18.5749C63.6357 20.3318 64 22.2592 64 24.3572ZM57.0113 24.3572C57.0113 23.2997 56.825 22.3189 56.4522 21.4149C56.0964 20.4938 55.6051 19.7007 54.9783 19.0355C54.3514 18.3703 53.6144 17.85 52.7673 17.4748C51.9371 17.0995 51.0477 16.9119 50.0989 16.9119C49.1501 16.9119 48.2522 17.1251 47.4051 17.5515C46.5749 17.9609 45.8464 18.5152 45.2195 19.2146C44.5927 19.8968 44.1013 20.69 43.7455 21.594C43.3898 22.481 43.2119 23.402 43.2119 24.3572C43.2119 25.4147 43.3898 26.3955 43.7455 27.2995C44.1013 28.2035 44.5927 28.9882 45.2195 29.6534C45.8464 30.3186 46.5749 30.8474 47.4051 31.2397C48.2522 31.6149 49.1501 31.8025 50.0989 31.8025C51.0477 31.8025 51.9371 31.6149 52.7673 31.2397C53.6144 30.8474 54.3514 30.3186 54.9783 29.6534C55.6051 28.9882 56.0964 28.2035 56.4522 27.2995C56.825 26.3955 57.0113 25.4147 57.0113 24.3572Z" fill="#E94100"/>
</g>
<path fill-rule="evenodd" clip-rule="evenodd" d="M41.2793 48.9916C41.8149 50.1257 41.3296 51.4792 40.1954 52.0148C38.6423 52.7481 36.0721 53.5718 33.1577 53.8135C30.2395 54.0555 26.7839 53.7281 23.6461 51.9322C22.5576 51.3092 22.1802 49.9217 22.8032 48.8331C23.4262 47.7446 24.8137 47.3672 25.9022 47.9902C27.9907 49.1856 30.4412 49.4813 32.7823 49.2871C35.1272 49.0926 37.1697 48.4207 38.2561 47.9076C39.3903 47.3721 40.7438 47.8574 41.2793 48.9916Z" fill="#E94100"/>
<defs>
<filter id="filter0_b_1_3" x="-4" y="-4" width="72" height="46.8129" filterUnits="userSpaceOnUse" color-interpolation-filters="sRGB">
<feFlood flood-opacity="0" result="BackgroundImageFix"/>
<feGaussianBlur in="BackgroundImageFix" stdDeviation="2"/>
<feComposite in2="SourceAlpha" operator="in" result="effect1_backgroundBlur_1_3"/>
<feBlend mode="normal" in="SourceGraphic" in2="effect1_backgroundBlur_1_3" result="shape"/>
</filter>
</defs>
</svg>
