<svg width="70" height="59" viewBox="0 0 70 59" fill="none" xmlns="http://www.w3.org/2000/svg">
<g filter="url(#filter0_b_142_90)">
<path d="M30.0454 41.3914H28.2327L25.3216 37.3269C24.6075 37.9721 23.8477 38.5804 23.0421 39.1518C22.2548 39.7048 21.4217 40.1933 20.5429 40.6172C19.6641 41.0228 18.7577 41.3453 17.824 41.585C16.9085 41.8246 15.9748 41.9444 15.0227 41.9444C12.9537 41.9444 11.0038 41.5573 9.1729 40.7831C7.36029 39.9905 5.76739 38.903 4.3942 37.5205C3.03932 36.1196 1.96824 34.4698 1.18094 32.5712C0.393647 30.6542 0 28.5712 0 26.3224C0 24.092 0.393647 22.0183 1.18094 20.1012C1.96824 18.1842 3.03932 16.5252 4.3942 15.1243C5.76739 13.7234 7.36029 12.6266 9.1729 11.834C11.0038 11.0414 12.9537 10.6451 15.0227 10.6451C15.6818 10.6451 16.3592 10.7004 17.055 10.811C17.7691 10.9216 18.4556 11.1059 19.1148 11.364C19.7922 11.6036 20.4239 11.9262 21.0098 12.3317C21.5957 12.7372 22.09 13.2349 22.4928 13.8248V0L30.0454 0V41.3914ZM22.4928 26.3224C22.4928 25.2901 22.2914 24.2948 21.8886 23.3362C21.5041 22.3593 20.9732 21.5022 20.2957 20.7648C19.6183 20.0091 18.8218 19.41 17.9064 18.9676C17.0092 18.5068 16.048 18.2764 15.0227 18.2764C13.9974 18.2764 13.027 18.4607 12.1115 18.8294C11.2144 19.198 10.4271 19.7326 9.74963 20.433C9.0905 21.1151 8.56869 21.9538 8.1842 22.9491C7.79971 23.9445 7.60746 25.0689 7.60746 26.3224C7.60746 27.4099 7.79971 28.4422 8.1842 29.4191C8.56869 30.3961 9.0905 31.2532 9.74963 31.9906C10.4271 32.7279 11.2144 33.3085 12.1115 33.7325C13.027 34.1564 13.9974 34.3684 15.0227 34.3684C16.048 34.3684 17.0092 34.1472 17.9064 33.7048C18.8218 33.244 19.6183 32.6449 20.2957 31.9076C20.9732 31.1519 21.5041 30.2947 21.8886 29.3362C22.2914 28.3592 22.4928 27.3546 22.4928 26.3224Z" fill="#EBEBEB"/>
<path d="M69.1636 26.3224C69.1636 28.645 68.77 30.7648 67.9827 32.6818C67.1954 34.5988 66.1243 36.2486 64.7694 37.6311C63.4146 38.9951 61.8217 40.055 59.9907 40.8108C58.1781 41.5665 56.2282 41.9444 54.141 41.9444C52.072 41.9444 50.1221 41.5573 48.2912 40.7831C46.4786 40.0089 44.8857 38.9306 43.5125 37.5481C42.1576 36.1656 41.0865 34.5251 40.2992 32.6265C39.5119 30.7095 39.1183 28.6081 39.1183 26.3224V0L46.6434 0V13.8248C47.0462 13.3087 47.5313 12.8478 48.0989 12.4423C48.6848 12.0368 49.3073 11.705 49.9665 11.4469C50.6439 11.1889 51.3397 10.9953 52.0537 10.8663C52.7678 10.7188 53.4635 10.6451 54.141 10.6451C56.2282 10.6451 58.1781 11.0414 59.9907 11.834C61.8217 12.6082 63.4146 13.6958 64.7694 15.0967C66.1243 16.4976 67.1954 18.1566 67.9827 20.0736C68.77 21.9722 69.1636 24.0551 69.1636 26.3224ZM61.6111 26.3224C61.6111 25.1795 61.4097 24.1196 61.0069 23.1427C60.6224 22.1473 60.0914 21.2902 59.414 20.5713C58.7366 19.8524 57.9401 19.2902 57.0247 18.8847C56.1275 18.4791 55.1663 18.2764 54.141 18.2764C53.1156 18.2764 52.1453 18.5068 51.2298 18.9676C50.3326 19.41 49.5454 20.0091 48.8679 20.7648C48.1905 21.5022 47.6595 22.3593 47.275 23.3362C46.8905 24.2948 46.6983 25.2901 46.6983 26.3224C46.6983 27.4652 46.8905 28.5251 47.275 29.5021C47.6595 30.479 48.1905 31.327 48.8679 32.0459C49.5454 32.7647 50.3326 33.3362 51.2298 33.7601C52.1453 34.1657 53.1156 34.3684 54.141 34.3684C55.1663 34.3684 56.1275 34.1657 57.0247 33.7601C57.9401 33.3362 58.7366 32.7647 59.414 32.0459C60.0914 31.327 60.6224 30.479 61.0069 29.5021C61.4097 28.5251 61.6111 27.4652 61.6111 26.3224Z" fill="#EBEBEB"/>
</g>
<path fill-rule="evenodd" clip-rule="evenodd" d="M44.6096 52.9441C45.1883 54.1697 44.6639 55.6325 43.4382 56.2112C41.7598 57.0037 38.9822 57.8938 35.8327 58.155C32.679 58.4166 28.9446 58.0627 25.5536 56.1219C24.3773 55.4487 23.9694 53.9492 24.6427 52.7729C25.316 51.5965 26.8154 51.1887 27.9918 51.8619C30.2488 53.1537 32.897 53.4733 35.427 53.2634C37.9611 53.0533 40.1683 52.3271 41.3424 51.7727C42.5681 51.194 44.0308 51.7184 44.6096 52.9441Z" fill="#EBEBEB"/>
<defs>
<filter id="filter0_b_142_90" x="-4" y="-4" width="77.1636" height="49.9444" filterUnits="userSpaceOnUse" color-interpolation-filters="sRGB">
<feFlood flood-opacity="0" result="BackgroundImageFix"/>
<feGaussianBlur in="BackgroundImageFix" stdDeviation="2"/>
<feComposite in2="SourceAlpha" operator="in" result="effect1_backgroundBlur_142_90"/>
<feBlend mode="normal" in="SourceGraphic" in2="effect1_backgroundBlur_142_90" result="shape"/>
</filter>
</defs>
</svg>
